<svg xmlns="http://www.w3.org/2000/svg" shape-rendering="geometricPrecision" viewBox="45.27 329.38 932.12 366.36">
  <metadata>null</metadata>

<path d=" M 45.452 357.121 C 46.026 353.578 45.541 349.585 45.554 345.993 C 45.575 340.505 46.012 334.839 45.577 329.375 C 53.863 334.011 61.717 340.311 69.36 345.945 C 81.005 354.529 92.884 362.806 104.562 371.344 C 110.491 375.677 116.555 379.869 122.633 383.988 C 124.489 385.246 126.319 386.544 128.182 387.792 C 128.998 388.338 130.171 388.85 130.776 389.62 C 130.721 415.741 130.769 441.873 130.83 467.995 C 130.846 474.753 130.72 481.532 130.954 488.285 C 131.013 489.988 131.056 491.697 131.061 493.4 C 131.062 493.882 131.313 494.998 130.991 495.4 C 125.02 489.841 117.291 485.733 110.702 480.926 C 97.018 470.941 83.176 461.154 69.381 451.322 C 63.93 447.437 58.556 443.411 53.029 439.636 C 50.931 438.203 46.951 436.338 45.637 434.164 C 45.234 430.89 45.601 427.307 45.605 423.999 C 45.613 417.665 45.542 411.329 45.541 404.995 C 45.537 389.066 44.988 373.038 45.452 357.121 Z" opacity="1" fill="rgb(211,184,148)" fill-rule="evenodd"/>
<path d=" M 130.739 544.501 C 130.461 545.204 130.449 546.258 129.9 546.823 C 129.693 547.037 129.439 546.374 129.115 546.532 C 128.475 546.846 128.793 547.971 128.205 548.305 C 127.988 548.428 127.09 546.69 126.45 547.066 C 124.999 547.916 127.195 550.547 125.258 551.468 C 124.802 549.606 125.696 545.866 123.146 545.328 C 123.769 543.773 123.93 542.258 124.51 540.704 C 124.732 540.11 125.194 539.045 124.697 538.459 C 124.327 538.023 122.961 538.752 122.448 538.837 C 120.251 539.203 118.257 538.538 116.663 540.692 C 115.979 542.037 114.615 541.858 113.672 542.889 C 111.837 544.896 110.931 548.339 110.193 550.891 C 109.958 551.704 109.322 552.51 109.28 553.356 C 109.227 554.417 110.119 554.339 110.615 555.012 C 110.797 555.26 110.344 555.484 110.406 555.78 C 110.566 556.554 110.817 557.099 110.675 557.925 C 110.544 558.684 109.89 559.53 109.897 560.262 C 109.905 561.09 110.404 562.104 110.23 562.907 C 110.095 563.535 109.265 563.255 109.257 563.912 C 109.252 564.262 109.769 564.39 109.631 564.764 C 109.504 565.109 109.004 565.173 108.881 565.521 C 108.712 566 109.416 566.185 109.169 566.799 C 108.407 568.692 106.806 569.938 107.263 571.888 C 106.532 572.377 106.706 573.078 106.743 573.872 C 104.496 573.869 101.701 573.25 99.585 574.135 C 97.934 574.951 96.436 576.692 95.904 578.48 C 95.707 579.14 95.963 580.983 95.081 581.228 C 94.606 581.36 94.386 580.19 94.082 580.004 C 93.899 579.892 93.617 580.275 93.427 580.324 C 91.69 579.662 90.332 577.024 88.423 577.292 C 87.968 577.863 87.959 578.496 87.549 579.065 C 86.769 579.587 86.008 580.144 85.16 580.552 C 85.56 580.116 86.011 579.732 86.427 579.311 C 86.491 578.69 85.547 578.861 85.118 578.67 C 83.03 577.74 81.251 577.62 78.934 577.606 C 76.759 577.249 74.739 576.591 72.501 576.764 C 71.849 576.814 71.533 577.373 70.898 577.417 C 69.286 577.527 67.64 577.15 66.013 577.276 C 62.964 577.85 63.786 582.282 64.342 584.331 C 63.969 584.384 63.384 584.538 63.027 584.373 C 62.667 584.206 63.413 583.852 63.248 583.537 C 63.049 583.157 62.499 583.243 62.363 582.768 C 62.243 582.348 62.647 581.87 62.643 581.444 C 62.628 579.773 61.947 577.082 63.797 576.239 C 64.982 575.732 65.61 574.508 66.815 573.959 C 66.941 573.907 67.066 573.855 67.192 573.803 C 67.893 573.433 68.04 572.721 68.65 572.283 C 70.946 572.757 73.239 575.1 73.833 571.235 C 73.907 570.759 73.991 570.254 74.011 569.772 C 74.034 569.221 73.31 568.374 73.436 567.993 C 73.639 567.382 74.388 567.106 74.788 566.67 C 75.47 565.927 75.615 563.466 75.045 562.706 C 74.055 562.714 73.006 563.026 72.023 562.933 C 70.36 562.776 68.904 561.935 67.354 561.402 C 67.625 560.721 68.3 560.381 68.579 559.744 C 68.801 559.237 68.42 558.916 68.336 558.448 C 68.178 557.565 68.781 555.552 67.782 554.986 C 66.599 554.315 66.222 556.197 65.27 556.38 C 65.028 556.426 64.649 556.47 64.456 556.237 C 64.163 555.882 64.474 555.352 64.097 554.973 C 63.451 554.324 62.445 554.566 61.798 553.77 C 60.435 552.096 61.73 550.972 61.528 549.366 C 61.44 548.666 60.798 548.154 60.698 547.426 C 60.572 546.5 60.915 545.404 60.571 544.518 C 60.246 543.679 59.131 543.493 58.763 542.747 C 58.51 542.234 59.266 541.735 59.038 541.399 C 58.633 540.805 57.531 541.57 56.962 541.27 C 56.341 540.941 56.558 540.057 55.827 539.835 C 54.931 539.563 54.181 540.427 53.396 540.287 C 52.526 540.131 51.687 539.295 50.768 539.417 C 49.828 539.541 49.16 540.546 48.311 540.917 C 47.859 540.145 46.037 540.049 45.742 541.004 C 45.758 534.493 46.134 527.856 45.631 521.361 C 49.444 518.38 53.707 515.972 57.632 513.139 C 66.705 506.59 75.947 500.253 85.048 493.743 C 86.421 493.922 87.889 495.489 89.032 496.264 C 92.123 498.36 95.242 500.446 98.298 502.592 C 109.161 510.222 119.772 518.419 130.919 525.616 C 131.396 526.91 130.82 529.531 130.827 530.999 C 130.85 535.502 130.774 540 130.739 544.501 Z" opacity="1" fill="rgb(141,124,105)" fill-rule="evenodd"/>
<path d=" M 45.742 541.004 C 46.037 540.049 47.859 540.145 48.311 540.917 C 48.601 541.548 49.254 542.209 49.319 542.918 C 49.359 543.356 48.775 543.906 48.936 544.3 C 49.333 545.27 50.607 545.285 51.162 546.053 C 51.903 547.078 51.997 550.208 51.727 551.421 C 51.442 552.697 48.748 551.06 48.248 551.87 C 47.628 552.874 47.319 554.692 48.201 555.633 C 48.751 556.22 49.677 556.394 50.199 556.977 C 50.626 557.453 48.741 559.194 48.895 559.986 C 49.003 560.547 50.409 560.494 50.839 560.616 C 52.984 561.224 55.648 561.04 57.892 561.266 C 58.435 562.45 59.764 563.612 59.856 564.935 C 59.929 566.005 58.634 567.854 59.519 568.298 C 59.992 568.535 60.863 567.167 60.999 566.826 C 61.309 566.049 60.822 565.677 60.686 564.95 C 60.465 563.766 60.557 562.547 60.69 561.361 C 61.255 560.487 61.601 561.052 62.404 561.213 C 62.779 561.289 62.981 560.904 63.344 560.892 C 64.161 560.865 65.123 561.58 65.872 561.862 C 66.302 562.486 67.001 562.686 67.369 563.343 C 67.363 564.842 66.188 565.585 65.749 566.884 C 65.626 567.246 66.259 567.394 66.037 567.689 C 65.52 568.38 64.014 568.162 63.358 568.966 C 62.716 569.753 62.596 570.762 61.791 571.531 C 60.277 572.52 58.551 572.16 56.871 572.467 C 56.234 572.583 55.615 572.94 55.054 572.508 C 53.445 571.269 53.904 567.887 50.829 569.035 C 49.31 569.603 51.542 572.113 51.666 572.925 C 51.874 574.291 50.884 575.641 51.212 577.043 C 51.422 577.939 52.292 577.775 52.998 577.895 C 54.64 578.175 56.445 578.105 58.05 578.6 C 58.767 579.526 58.718 583.233 58.368 584.418 C 57.243 585.437 55.288 585.005 53.9 585.205 C 52.711 585.376 51.505 586.71 50.2 587.05 C 49.207 587.309 48.205 586.697 47.456 587.475 C 47.22 587.852 47.58 591.259 47.872 591.753 C 48.204 592.318 48.924 592.324 49.284 592.894 C 48.879 593.031 48.111 593.152 47.833 593.502 C 47.433 594.005 47.694 594.807 47.711 595.382 C 47.753 596.825 46.849 601.238 49.395 600.493 C 49.074 601.712 48.147 601.822 47.621 602.84 C 46.84 604.352 48.535 606.355 49.85 606.865 C 50.29 609.376 52.992 609.3 55.006 609.83 C 57.743 611.213 58.478 614.117 57.878 616.956 C 57.933 617.931 58.388 618.429 59.228 618.891 C 58.83 620.055 58.178 621.641 58.739 622.806 C 59.91 623.215 63.298 622.476 63.292 620.994 C 63.288 619.979 62.447 619.046 61.978 618.206 C 64.087 617.794 66.405 617.491 68.53 617.987 C 70.09 618.748 71.148 620.312 73.023 619.13 C 75.806 617.374 76.627 608.486 81.489 611.979 C 82.607 613.007 83.055 614.677 84.537 615.277 C 84.197 615.653 83.18 616.262 83.262 616.875 C 83.314 617.264 83.719 617.211 83.744 617.557 C 82.076 619.442 80.279 622.227 80.197 624.872 C 81.093 626.942 82.525 625.212 83.914 624.806 C 85.612 624.631 87.008 624.846 88.178 623.448 C 89.42 621.273 90.72 619.13 91.89 616.908 C 92.776 615.923 93.666 614.754 94.451 613.684 C 95.391 611.914 96.987 609.921 97.446 607.988 C 99.072 608.369 99.523 606.215 99.383 604.847 C 99.014 601.24 96.047 597.589 97.951 594.012 C 98.139 593.543 98.507 593.092 98.672 592.636 C 98.765 592.378 98.291 591.994 98.513 591.845 C 99.109 591.443 100.173 591.94 100.684 592.259 C 102.161 593.18 103.661 594.102 104.931 595.302 C 105.902 596.219 104.897 597.645 105.354 598.114 C 107.135 599.942 110.217 599.744 112.396 600.849 C 114.197 601.762 115.222 603.842 117.126 604.569 C 118.654 605.153 120.596 604.679 122.207 604.857 C 122.973 604.942 123.723 605.294 124.502 605.155 C 125.228 605.026 126.453 604.663 126.626 603.796 C 126.717 603.343 124.392 602.66 124.888 602.025 C 125.291 601.509 126.219 601.799 126.637 601.303 C 127.022 600.847 125.464 600.965 125.903 600.558 C 126.823 599.704 127.729 598.924 126.847 597.341 C 126.124 596.045 124.177 596.775 123.243 595.716 C 122.676 595.074 123.385 594.761 123.021 594.093 C 122.739 593.578 122.046 593.537 121.775 592.956 C 121.247 591.827 121.325 590.427 120.958 589.233 C 120.802 588.727 120.759 587.942 120.235 587.645 C 119.6 587.286 116.828 586.891 116.011 586.852 C 115.273 586.816 114.453 587.052 113.865 586.509 C 114.639 586.519 115.118 586.282 115.82 586.003 C 116.546 585.715 117.775 585.535 118.211 584.803 C 118.619 584.118 117.776 583.752 117.44 583.311 C 116.279 581.788 115.069 580.342 113.479 579.233 C 112.957 578.869 111.681 579.175 111.375 578.735 C 111.211 578.5 111.737 577.863 111.623 577.486 C 111.422 576.826 110.625 576.392 110.373 575.735 C 110.079 574.969 110.988 573.576 111.258 572.872 C 111.818 573.216 111.829 573.94 112.389 574.251 C 112.951 574.563 113.587 574.21 114.152 574.516 C 114.572 574.744 115.065 575.988 115.66 575.777 C 117.059 575.283 115.077 574.261 115.51 573.686 C 115.741 573.38 116.241 573.445 116.56 573.256 C 116.793 573.118 116.844 572.968 117.136 573.027 C 118.943 573.392 117.258 574.133 117.915 574.786 C 118.201 575.07 118.776 574.911 119.132 575.05 C 119.996 575.39 121.195 576.355 122.18 575.845 C 123.072 575.384 123.072 574.086 123.958 573.591 C 124.328 573.385 124.759 573.515 124.828 572.966 C 124.962 571.916 123.355 571.582 124.323 570.58 C 125.369 569.498 126.934 571.311 127.689 570.822 C 128.042 570.593 129.202 567.274 129.894 568.052 C 130.942 569.229 130.453 571.541 130.462 572.98 C 130.477 575.647 130.49 578.312 130.52 580.979 C 130.536 582.426 130.292 584.103 130.71 585.503 C 130.78 601.498 131.092 617.524 130.698 633.514 C 130.176 631.742 131.234 629.136 130.51 627.54 C 129.97 626.348 128.757 627.335 128.388 626.432 C 127.647 624.622 128.355 622.806 127.744 621.19 C 127.361 620.177 127.535 616.63 126.327 616.36 C 125.498 616.175 124.411 617.078 124.273 617.876 C 124.013 619.386 125.86 620.375 125.848 621.821 C 125.842 622.496 125.415 625.944 124.065 625.212 C 123.534 624.924 123.227 624.311 122.691 624.027 C 121.953 623.636 121.33 624.172 120.783 623.424 C 120.78 622.589 121.546 621.754 121.34 620.938 C 121.192 620.348 120.636 620.219 120.372 619.73 C 120.184 619.383 120.334 618.81 119.777 618.795 C 118.48 618.762 119.482 621.204 117.696 619.826 C 117.56 619.721 117.425 619.615 117.302 619.496 C 117.011 619.217 117.025 619.197 116.849 618.886 C 117.108 618.513 117.885 618.294 117.913 617.814 C 117.964 616.947 116.628 616.642 116.08 616.301 C 114.269 615.175 112.921 613.815 110.878 612.941 C 110.22 612.659 109.025 612.747 108.561 612.158 C 108.212 611.716 108.626 611.142 108.261 610.64 C 107.522 609.623 106.214 609.136 105.353 608.232 C 104.916 607.773 104.787 606.891 104.282 606.524 C 104.012 606.327 103.831 606.81 103.469 606.676 C 103.278 606.605 103.178 606.304 102.909 606.474 C 102.026 607.032 102.9 608.538 102.787 609.295 C 102.177 611.684 100.962 613.98 100.483 616.376 C 100.299 618.019 98.902 616.967 97.842 617.344 C 97.045 617.628 96.805 618.535 96.104 618.817 C 95.754 618.958 95.409 618.36 95.263 618.542 C 94.86 619.046 95.271 620.433 95.349 620.998 C 95.52 621.939 96.414 623.247 97.492 623.309 C 97.646 623.318 98.295 623.08 98.465 623.229 C 100.009 624.581 101.894 627.243 102.952 629.021 C 103.471 629.891 104.02 631.447 105 631.854 C 104.459 632.86 103.432 633.519 102.892 634.535 C 102.379 635.5 102.699 636.772 102.061 637.677 C 101.53 638.43 100.391 638.94 99.716 639.604 C 97.588 641.694 95.446 643.819 93.27 645.848 C 93.301 645.418 91.724 645.119 91.365 645.032 C 89.109 644.223 86.424 640.953 83.919 641.992 C 81.839 644.958 85.812 645.492 87.294 647.168 C 87.971 647.933 88.755 649.679 89.829 649.87 C 89.114 651.352 87.092 650.752 86.403 652.069 C 86.03 652.782 87.411 653.588 87.29 654.435 C 87.109 655.713 84.33 656.75 83.262 656.915 C 81.467 655.976 84.188 655.01 83.629 654.028 C 83.342 653.523 82.672 653.69 82.363 653.27 C 81.405 651.968 80.338 651.89 79.039 650.873 C 77.312 649.519 75.865 647.575 74.333 645.997 C 73.542 645.181 72.497 643.629 71.349 643.736 C 68.836 645.365 66.407 647.191 63.926 648.857 C 63.162 649.03 62.835 648.277 62.149 648.158 C 61.194 647.993 60.534 649.763 59.429 649.309 C 58.117 648.771 58.138 645.198 57.196 644.032 C 56.134 642.717 54.351 642.419 53.457 640.966 C 53.605 638.851 57.15 641.88 58.083 642.139 C 58.413 642.231 58.635 641.897 58.953 641.886 C 59.272 641.876 59.917 642.167 60.174 641.846 C 60.808 641.059 59.069 640.215 58.861 639.665 C 58.765 639.41 59.232 638.949 59.236 638.632 C 58.303 637.309 56.99 638.237 57.354 636.045 C 58.036 634.352 58.813 632.974 58.134 631.128 C 56.61 630.006 53.312 630.363 51.459 630.269 C 50.871 630.24 49.506 629.949 49.25 630.702 C 48.433 633.096 49.226 636.69 50.32 638.833 C 50.614 639.411 51.098 639.237 51.398 639.793 C 49.843 640.532 49.483 641.881 48.656 643.264 C 47.956 644.433 46.983 645.326 46.217 646.429 C 46.113 646.45 46.01 646.47 45.906 646.491 C 45.441 634.518 45.848 622.48 45.847 610.496 C 45.844 587.331 45.742 564.17 45.742 541.004 Z M 62.383 635.479 C 62.356 635.589 62.329 635.7 62.301 635.81 C 62.519 636.545 65.101 638.132 65.73 637.094 C 65.917 636.784 65.179 636.598 65.451 636.365 C 65.845 636.027 67.819 636.255 66.14 635.475 C 64.931 634.968 65.078 633.719 63.477 634.563 C 63.081 634.849 62.726 635.132 62.383 635.479 Z M 95.851 617.481 C 95.851 617.481 95.851 617.481 95.851 617.481 Z" opacity="1" fill="rgb(140,123,105)" fill-rule="evenodd"/>
<path d=" M 45.906 646.491 C 46.01 646.47 46.113 646.45 46.217 646.429 C 46.772 646.873 47.237 647.217 47.931 646.777 C 47.967 646.755 48.664 646.036 48.687 646.047 C 50.355 646.799 50.371 649.343 51.609 650.368 C 52.17 650.833 52.77 650.689 53.399 650.936 C 54.432 651.342 54.948 652.535 56.045 652.876 C 58.341 653.591 62.528 650.503 63.926 648.857 C 66.407 647.191 68.836 645.365 71.349 643.736 C 72.497 643.629 73.542 645.181 74.333 645.997 C 75.865 647.575 77.312 649.519 79.039 650.873 C 80.338 651.89 81.405 651.968 82.363 653.27 C 82.672 653.69 83.342 653.523 83.629 654.028 C 84.188 655.01 81.467 655.976 83.262 656.915 C 82.592 658.042 80.821 658.043 79.649 658.264 C 79.138 658.36 78.923 657.684 78.382 658.009 C 77.609 658.472 78.49 658.907 78.116 659.246 C 77.928 659.416 77.6 659.344 77.401 659.499 C 76.584 660.134 77.004 661.978 76.719 662.864 C 76.294 664.183 74.456 664.699 74.265 666.122 C 74.186 666.714 74.533 667.016 74.65 667.549 C 74.771 668.099 73.642 668.306 73.913 668.793 C 74.517 669.88 75.606 668.836 76.166 669.008 C 77.14 669.308 78.333 671.451 78.402 672.355 C 71.709 678.046 64.102 682.959 56.923 688.019 C 54.556 689.688 52.191 691.36 49.827 693.036 C 48.981 693.636 48.12 694.224 47.298 694.854 C 47.134 694.979 46.024 695.992 45.993 695.668 C 46.434 691.567 45.916 687.128 45.901 682.993 C 45.857 670.898 45.142 658.562 45.906 646.491 Z" opacity="1" fill="rgb(136,119,102)" fill-rule="evenodd"/>
<path d=" M 51.398 639.793 C 52.167 640.083 52.794 640.488 53.457 640.966 C 54.351 642.419 56.134 642.717 57.196 644.032 C 58.138 645.198 58.117 648.771 59.429 649.309 C 60.534 649.763 61.194 647.993 62.149 648.158 C 62.835 648.277 63.162 649.03 63.926 648.857 C 62.528 650.503 58.341 653.591 56.045 652.876 C 54.948 652.535 54.432 651.342 53.399 650.936 C 52.77 650.689 52.17 650.833 51.609 650.368 C 50.371 649.343 50.355 646.799 48.687 646.047 C 48.664 646.036 47.967 646.755 47.931 646.777 C 47.237 647.217 46.772 646.873 46.217 646.429 C 46.983 645.326 47.956 644.433 48.656 643.264 C 49.483 641.881 49.843 640.532 51.398 639.793 Z" opacity="1" fill="rgb(142,127,109)" fill-rule="evenodd"/>
<path d=" M 67.369 563.343 C 70.096 565.717 68.894 569.292 68.65 572.283 C 68.04 572.721 67.893 573.433 67.192 573.803 C 67.066 573.855 66.941 573.907 66.815 573.959 C 65.61 574.508 64.982 575.732 63.797 576.239 C 61.947 577.082 62.628 579.773 62.643 581.444 C 62.647 581.87 62.243 582.348 62.363 582.768 C 62.499 583.243 63.049 583.157 63.248 583.537 C 63.413 583.852 62.667 584.206 63.027 584.373 C 63.384 584.538 63.969 584.384 64.342 584.331 C 64.851 584.526 65.732 585.129 66.244 585.152 C 67.181 585.194 68.451 584.363 69.346 585.035 C 71.14 586.383 69.475 590.52 68.627 592.09 C 67.707 592.68 66.59 592.048 65.674 592.775 C 64.97 593.814 63.612 594.275 64.33 595.354 C 64.765 596.389 64.438 595.727 63.92 596.472 C 63.699 596.79 64.249 597.069 64.247 597.348 C 64.245 597.672 63.745 597.863 63.915 598.246 C 64.457 599.466 66.371 599.461 67.423 599.827 C 67.676 599.915 67.999 600.286 68.297 600.176 C 68.669 600.039 68.887 599.369 69.363 599.527 C 70.179 599.798 70.59 600.888 71.42 601.237 C 72.138 602.768 74.274 601.951 75.355 603.135 C 77.684 605.688 79.735 609.001 81.489 611.979 C 76.627 608.486 75.806 617.374 73.023 619.13 C 71.148 620.312 70.09 618.748 68.53 617.987 C 68.415 617.309 68.771 616.551 68.643 615.938 C 68.35 614.541 67.218 613.423 67.008 611.917 C 67.603 611.179 68.427 612.099 68.746 612.692 C 69.522 614.137 69.828 617.116 71.682 617.624 C 72.384 617.274 72.936 616.472 73.323 615.819 C 73.899 613.829 72.23 611.564 70.29 611.017 C 70.002 610.936 69.788 611.48 69.563 611.241 C 68.62 610.237 67.695 609.386 66.026 609.255 C 65.186 609.189 63.278 610.449 65.049 610.721 C 64.694 611.158 62.786 612.287 62.5 611.135 C 62.412 610.778 62.785 610.303 62.88 609.969 C 62.513 607.911 61.096 606.811 61.044 604.526 C 61.054 603.599 61.6 602.825 61.609 601.913 C 61.632 599.771 60.885 597.59 60.787 595.422 C 60.733 594.227 59.829 592.438 58.488 593.753 C 57.251 593.594 54.18 592.681 53.888 594.458 C 53.28 594.079 53.221 593.369 52.676 593.014 C 52.667 593.008 51.914 592.775 51.894 592.755 C 51.6 592.457 52.378 592.326 52.128 592.007 C 51.836 591.634 50.224 591.709 49.906 592.019 C 49.484 592.431 49.84 592.546 49.284 592.894 C 48.924 592.324 48.204 592.318 47.872 591.753 C 47.58 591.259 47.22 587.852 47.456 587.475 C 48.205 586.697 49.207 587.309 50.2 587.05 C 51.505 586.71 52.711 585.376 53.9 585.205 C 55.288 585.005 57.243 585.437 58.368 584.418 C 58.718 583.233 58.767 579.526 58.05 578.6 C 56.445 578.105 54.64 578.175 52.998 577.895 C 52.292 577.775 51.422 577.939 51.212 577.043 C 50.884 575.641 51.874 574.291 51.666 572.925 C 51.542 572.113 49.31 569.603 50.829 569.035 C 53.904 567.887 53.445 571.269 55.054 572.508 C 55.615 572.94 56.234 572.583 56.871 572.467 C 58.551 572.16 60.277 572.52 61.791 571.531 C 62.596 570.762 62.716 569.753 63.358 568.966 C 64.014 568.162 65.52 568.38 66.037 567.689 C 66.259 567.394 65.626 567.246 65.749 566.884 C 66.188 565.585 67.363 564.842 67.369 563.343 Z" opacity="1" fill="rgb(140,124,106)" fill-rule="evenodd"/>
<path d=" M 48.311 540.917 C 49.16 540.546 49.828 539.541 50.768 539.417 C 51.687 539.295 52.526 540.131 53.396 540.287 C 54.181 540.427 54.931 539.563 55.827 539.835 C 56.558 540.057 56.341 540.941 56.962 541.27 C 57.531 541.57 58.633 540.805 59.038 541.399 C 59.266 541.735 58.51 542.234 58.763 542.747 C 59.131 543.493 60.246 543.679 60.571 544.518 C 60.915 545.404 60.572 546.5 60.698 547.426 C 60.798 548.154 61.44 548.666 61.528 549.366 C 61.73 550.972 60.435 552.096 61.798 553.77 C 62.445 554.566 63.451 554.324 64.097 554.973 C 64.474 555.352 64.163 555.882 64.456 556.237 C 64.649 556.47 65.028 556.426 65.27 556.38 C 66.222 556.197 66.599 554.315 67.782 554.986 C 68.781 555.552 68.178 557.565 68.336 558.448 C 68.42 558.916 68.801 559.237 68.579 559.744 C 68.3 560.381 67.625 560.721 67.354 561.402 C 66.802 561.452 66.391 561.683 65.872 561.862 C 65.123 561.58 64.161 560.865 63.344 560.892 C 62.981 560.904 62.779 561.289 62.404 561.213 C 61.601 561.052 61.255 560.487 60.69 561.361 C 59.705 561.387 58.903 561.116 57.892 561.266 C 55.648 561.04 52.984 561.224 50.839 560.616 C 50.409 560.494 49.003 560.547 48.895 559.986 C 48.741 559.194 50.626 557.453 50.199 556.977 C 49.677 556.394 48.751 556.22 48.201 555.633 C 47.319 554.692 47.628 552.874 48.248 551.87 C 48.748 551.06 51.442 552.697 51.727 551.421 C 51.997 550.208 51.903 547.078 51.162 546.053 C 50.607 545.285 49.333 545.27 48.936 544.3 C 48.775 543.906 49.359 543.356 49.319 542.918 C 49.254 542.209 48.601 541.548 48.311 540.917 Z" opacity="1" fill="rgb(142,125,105)" fill-rule="evenodd"/>
<path d=" M 49.284 592.894 C 49.84 592.546 49.484 592.431 49.906 592.019 C 50.224 591.709 51.836 591.634 52.128 592.007 C 52.378 592.326 51.6 592.457 51.894 592.755 C 51.914 592.775 52.667 593.008 52.676 593.014 C 53.221 593.369 53.28 594.079 53.888 594.458 C 55.338 595.304 57.57 596.916 59.238 595.331 C 59.402 594.543 59.17 594.148 58.488 593.753 C 59.829 592.438 60.733 594.227 60.787 595.422 C 60.885 597.59 61.632 599.771 61.609 601.913 C 61.6 602.825 61.054 603.599 61.044 604.526 C 59.807 603.327 59.703 601.373 58.877 599.923 C 57.973 599.513 56.914 600.128 55.971 600.252 C 53.911 600.522 51.507 600.49 49.395 600.493 C 46.849 601.238 47.753 596.825 47.711 595.382 C 47.694 594.807 47.433 594.005 47.833 593.502 C 48.111 593.152 48.879 593.031 49.284 592.894 Z" opacity="1" fill="rgb(144,127,110)" fill-rule="evenodd"/>
<path d=" M 49.395 600.493 C 51.507 600.49 53.911 600.522 55.971 600.252 C 56.914 600.128 57.973 599.513 58.877 599.923 C 59.703 601.373 59.807 603.327 61.044 604.526 C 61.096 606.811 62.513 607.911 62.88 609.969 C 62.785 610.303 62.412 610.778 62.5 611.135 C 62.786 612.287 64.694 611.158 65.049 610.721 C 65.684 609.817 66.556 611.441 67.008 611.917 C 67.218 613.423 68.35 614.541 68.643 615.938 C 68.771 616.551 68.415 617.309 68.53 617.987 C 66.405 617.491 64.087 617.794 61.978 618.206 C 60.694 617.818 59.801 617.272 59.228 618.891 C 58.388 618.429 57.933 617.931 57.878 616.956 C 58.478 614.117 57.743 611.213 55.006 609.83 C 55.069 609.553 55.471 608.639 55.359 608.477 C 55.193 608.236 52.747 607.517 52.318 607.339 C 51.497 607.048 50.72 606.89 49.85 606.865 C 48.535 606.355 46.84 604.352 47.621 602.84 C 48.147 601.822 49.074 601.712 49.395 600.493 Z" opacity="1" fill="rgb(138,122,104)" fill-rule="evenodd"/>
<path d=" M 53.457 640.966 C 52.794 640.488 52.167 640.083 51.398 639.793 C 51.098 639.237 50.614 639.411 50.32 638.833 C 49.226 636.69 48.433 633.096 49.25 630.702 C 49.506 629.949 50.871 630.24 51.459 630.269 C 53.312 630.363 56.61 630.006 58.134 631.128 C 58.813 632.974 58.036 634.352 57.354 636.045 C 56.99 638.237 58.303 637.309 59.236 638.632 C 59.232 638.949 58.765 639.41 58.861 639.665 C 59.069 640.215 60.808 641.059 60.174 641.846 C 59.917 642.167 59.272 641.876 58.953 641.886 C 58.635 641.897 58.413 642.231 58.083 642.139 C 57.15 641.88 53.605 638.851 53.457 640.966 Z" opacity="1" fill="rgb(141,126,108)" fill-rule="evenodd"/>
<path d=" M 49.85 606.865 C 50.72 606.89 51.497 607.048 52.318 607.339 C 52.747 607.517 55.193 608.236 55.359 608.477 C 55.471 608.639 55.069 609.553 55.006 609.83 C 52.992 609.3 50.29 609.376 49.85 606.865 Z" opacity="1" fill="rgb(143,128,106)" fill-rule="evenodd"/>
<path d=" M 58.488 593.753 C 59.17 594.148 59.402 594.543 59.238 595.331 C 57.57 596.916 55.338 595.304 53.888 594.458 C 54.18 592.681 57.251 593.594 58.488 593.753 Z" opacity="1" fill="rgb(131,123,96)" fill-rule="evenodd"/>
<path d=" M 57.892 561.266 C 58.903 561.116 59.705 561.387 60.69 561.361 C 60.557 562.547 60.465 563.766 60.686 564.95 C 60.822 565.677 61.309 566.049 60.999 566.826 C 60.863 567.167 59.992 568.535 59.519 568.298 C 58.634 567.854 59.929 566.005 59.856 564.935 C 59.764 563.612 58.435 562.45 57.892 561.266 Z" opacity="1" fill="rgb(139,126,101)" fill-rule="evenodd"/>
<path d=" M 59.228 618.891 C 59.801 617.272 60.694 617.818 61.978 618.206 C 62.447 619.046 63.288 619.979 63.292 620.994 C 63.298 622.476 59.91 623.215 58.739 622.806 C 58.178 621.641 58.83 620.055 59.228 618.891 Z" opacity="1" fill="rgb(151,130,114)" fill-rule="evenodd"/>
<path d=" M 62.383 635.479 C 62.726 635.132 63.081 634.849 63.477 634.563 C 65.078 633.719 64.931 634.968 66.14 635.475 C 67.819 636.255 65.845 636.027 65.451 636.365 C 65.179 636.598 65.917 636.784 65.73 637.094 C 65.101 638.132 62.519 636.545 62.301 635.81 C 62.329 635.7 62.356 635.589 62.383 635.479 Z" opacity="1" fill="rgb(140,130,107)" fill-rule="evenodd"/>
<path d=" M 66.013 577.276 C 66.044 578.437 69.008 577.532 70.176 577.825 C 72.711 578.461 74.518 580.624 77.037 581.035 C 77.334 581.011 78.569 580.499 78.067 579.992 C 77.878 579.801 77.161 580.049 77.349 579.547 C 77.614 578.844 78.446 578.162 78.934 577.606 C 81.251 577.62 83.03 577.74 85.118 578.67 C 85.547 578.861 86.491 578.69 86.427 579.311 C 86.011 579.732 85.56 580.116 85.16 580.552 C 83.407 581.629 81.805 583.786 80.717 585.511 C 80.713 585.693 80.709 585.876 80.705 586.058 C 82.543 589.173 87.374 587.125 89.764 589.798 C 92.025 592.327 88.022 594.944 86.699 596.751 C 85.925 597.808 85.979 599.258 85.246 600.246 C 85.106 600.435 84.566 600.979 84.267 600.834 C 82.372 599.917 82.664 597.198 82.313 595.581 C 82.05 594.37 80.991 593.524 80.587 592.391 C 80.004 590.757 80.541 587.947 79.579 586.405 C 78.446 584.588 75.044 585.492 73.895 586.923 C 73.234 587.747 72.837 588.94 72.525 589.933 C 72.034 591.498 71.24 592.895 70.757 594.447 C 69.29 596.573 66.394 595.499 64.33 595.354 C 63.612 594.275 64.97 593.814 65.674 592.775 C 66.59 592.048 67.707 592.68 68.627 592.09 C 69.475 590.52 71.14 586.383 69.346 585.035 C 68.451 584.363 67.181 585.194 66.244 585.152 C 65.732 585.129 64.851 584.526 64.342 584.331 C 63.786 582.282 62.964 577.85 66.013 577.276 Z" opacity="1" fill="rgb(146,131,112)" fill-rule="evenodd"/>
<path d=" M 64.33 595.354 C 66.394 595.499 69.29 596.573 70.757 594.447 C 71.24 592.895 72.034 591.498 72.525 589.933 C 72.837 588.94 73.234 587.747 73.895 586.923 C 75.044 585.492 78.446 584.588 79.579 586.405 C 80.541 587.947 80.004 590.757 80.587 592.391 C 80.991 593.524 82.05 594.37 82.313 595.581 C 82.664 597.198 82.372 599.917 84.267 600.834 C 84.566 600.979 85.106 600.435 85.246 600.246 C 85.979 599.258 85.925 597.808 86.699 596.751 C 88.022 594.944 92.025 592.327 89.764 589.798 C 87.374 587.125 82.543 589.173 80.705 586.058 C 80.709 585.876 80.713 585.693 80.717 585.511 C 81.805 583.786 83.407 581.629 85.16 580.552 C 86.008 580.144 86.769 579.587 87.549 579.065 C 87.959 578.496 87.968 577.863 88.423 577.292 C 90.332 577.024 91.69 579.662 93.427 580.324 C 93.617 580.275 93.899 579.892 94.082 580.004 C 94.386 580.19 94.606 581.36 95.081 581.228 C 95.963 580.983 95.707 579.14 95.904 578.48 C 96.436 576.692 97.934 574.951 99.585 574.135 C 101.701 573.25 104.496 573.869 106.743 573.872 C 107.025 574.55 107.231 575.028 107.245 575.778 C 107.261 576.638 107.422 578.176 106.623 578.786 C 104.943 580.069 102.015 577.285 100.255 578.552 C 99.896 578.81 100.269 579.263 100.205 579.584 C 99.833 579.844 99.081 580.082 98.86 580.506 C 98.003 582.145 100.705 583.563 101.769 584.085 C 105.095 585.717 110.178 586.08 113.865 586.509 C 114.453 587.052 115.273 586.816 116.011 586.852 C 116.828 586.891 119.6 587.286 120.235 587.645 C 120.759 587.942 120.802 588.727 120.958 589.233 C 121.325 590.427 121.247 591.827 121.775 592.956 C 122.046 593.537 122.739 593.578 123.021 594.093 C 123.385 594.761 122.676 595.074 123.243 595.716 C 124.177 596.775 126.124 596.045 126.847 597.341 C 127.729 598.924 126.823 599.704 125.903 600.558 C 125.464 600.965 127.022 600.847 126.637 601.303 C 126.219 601.799 125.291 601.509 124.888 602.025 C 124.392 602.66 126.717 603.343 126.626 603.796 C 126.453 604.663 125.228 605.026 124.502 605.155 C 123.723 605.294 122.973 604.942 122.207 604.857 C 120.596 604.679 118.654 605.153 117.126 604.569 C 115.222 603.842 114.197 601.762 112.396 600.849 C 110.217 599.744 107.135 599.942 105.354 598.114 C 104.897 597.645 105.902 596.219 104.931 595.302 C 103.661 594.102 102.161 593.18 100.684 592.259 C 100.173 591.94 99.109 591.443 98.513 591.845 C 98.291 591.994 98.765 592.378 98.672 592.636 C 98.507 593.092 98.139 593.543 97.951 594.012 C 96.047 597.589 99.014 601.24 99.383 604.847 C 99.523 606.215 99.072 608.369 97.446 607.988 C 97.214 606.518 95.979 605.655 95.114 604.534 C 94.244 603.408 94.735 602.867 94.372 601.761 C 94.203 601.243 93.486 600.951 93.152 600.518 C 91.965 598.983 91.564 597.744 89.511 598.012 C 88.997 598.079 88.947 597.427 88.414 597.789 C 86.922 598.804 85.307 601.347 84.717 603.028 C 84.246 604.366 84.851 605.51 83.27 605.875 C 82.576 606.035 82.938 606.979 82.385 606.963 C 81.797 606.947 80.98 605.779 80.605 605.397 C 79.012 603.773 77.677 601.984 76.306 600.173 C 75.748 599.436 75.261 598.573 74.232 598.753 C 73.018 599.452 73.025 601.022 71.42 601.237 C 70.59 600.888 70.179 599.798 69.363 599.527 C 68.887 599.369 68.669 600.039 68.297 600.176 C 67.999 600.286 67.676 599.915 67.423 599.827 C 66.371 599.461 64.457 599.466 63.915 598.246 C 63.745 597.863 64.245 597.672 64.247 597.348 C 64.249 597.069 63.699 596.79 63.92 596.472 C 64.438 595.727 64.765 596.389 64.33 595.354 Z M 83.281 585.533 C 84.53 587.971 86.528 584.082 87.797 584.914 C 89.086 585.757 89.732 587.386 91.074 588.229 C 91.732 588.642 92.41 588.694 92.706 587.916 C 92.665 586.466 90.715 583.021 89.358 582.389 C 88.766 582.114 86.6 582.621 85.978 582.849 C 84.787 583.521 84.223 584.605 83.281 585.533 Z" opacity="1" fill="rgb(142,127,107)" fill-rule="evenodd"/>
<path d=" M 67.008 611.917 C 66.556 611.441 65.684 609.817 65.049 610.721 C 63.278 610.449 65.186 609.189 66.026 609.255 C 67.695 609.386 68.62 610.237 69.563 611.241 C 69.788 611.48 70.002 610.936 70.29 611.017 C 72.23 611.564 73.899 613.829 73.323 615.819 C 72.936 616.472 72.384 617.274 71.682 617.624 C 69.828 617.116 69.522 614.137 68.746 612.692 C 68.427 612.099 67.603 611.179 67.008 611.917 Z" opacity="0.996" fill="rgb(134,120,101)" fill-rule="evenodd"/>
<path d=" M 65.872 561.862 C 66.391 561.683 66.802 561.452 67.354 561.402 C 68.904 561.935 70.36 562.776 72.023 562.933 C 73.006 563.026 74.055 562.714 75.045 562.706 C 75.615 563.466 75.47 565.927 74.788 566.67 C 74.388 567.106 73.639 567.382 73.436 567.993 C 73.31 568.374 74.034 569.221 74.011 569.772 C 73.991 570.254 73.907 570.759 73.833 571.235 C 73.239 575.1 70.946 572.757 68.65 572.283 C 68.894 569.292 70.096 565.717 67.369 563.343 C 67.001 562.686 66.302 562.486 65.872 561.862 Z" opacity="1" fill="rgb(138,122,102)" fill-rule="evenodd"/>
<path d=" M 66.013 577.276 C 67.64 577.15 69.286 577.527 70.898 577.417 C 71.533 577.373 71.849 576.814 72.501 576.764 C 74.739 576.591 76.759 577.249 78.934 577.606 C 78.446 578.162 77.614 578.844 77.349 579.547 C 77.161 580.049 77.878 579.801 78.067 579.992 C 78.569 580.499 77.334 581.011 77.037 581.035 C 74.518 580.624 72.711 578.461 70.176 577.825 C 69.008 577.532 66.044 578.437 66.013 577.276 Z" opacity="1" fill="rgb(147,131,112)" fill-rule="evenodd"/>
<path d=" M 71.42 601.237 C 73.025 601.022 73.018 599.452 74.232 598.753 C 75.261 598.573 75.748 599.436 76.306 600.173 C 77.677 601.984 79.012 603.773 80.605 605.397 C 80.98 605.779 81.797 606.947 82.385 606.963 C 82.938 606.979 82.576 606.035 83.27 605.875 C 84.851 605.51 84.246 604.366 84.717 603.028 C 85.307 601.347 86.922 598.804 88.414 597.789 C 88.947 597.427 88.997 598.079 89.511 598.012 C 91.564 597.744 91.965 598.983 93.152 600.518 C 93.486 600.951 94.203 601.243 94.372 601.761 C 94.735 602.867 94.244 603.408 95.114 604.534 C 95.979 605.655 97.214 606.518 97.446 607.988 C 96.987 609.921 95.391 611.914 94.451 613.684 C 93.666 614.754 92.776 615.923 91.89 616.908 C 91.626 616.008 91.104 617.038 90.485 616.749 C 89.759 616.41 89.31 615.56 88.429 615.463 C 87.098 615.315 85.902 615.579 84.537 615.277 C 83.055 614.677 82.607 613.007 81.489 611.979 C 79.735 609.001 77.684 605.688 75.355 603.135 C 74.274 601.951 72.138 602.768 71.42 601.237 Z" opacity="1" fill="rgb(144,129,110)" fill-rule="evenodd"/>
<path d=" M 83.262 656.915 C 84.33 656.75 87.109 655.713 87.29 654.435 C 87.411 653.588 86.03 652.782 86.403 652.069 C 87.092 650.752 89.114 651.352 89.829 649.87 C 90.589 649.267 91.208 648.468 91.86 647.751 C 92.334 647.12 92.796 646.48 93.27 645.848 C 95.446 643.819 97.588 641.694 99.716 639.604 C 100.391 638.94 101.53 638.43 102.061 637.677 C 102.699 636.772 102.379 635.5 102.892 634.535 C 103.432 633.519 104.459 632.86 105 631.854 C 107.551 632.039 110.565 631.886 113.106 631.53 C 113.51 631.474 116.06 631.222 115.527 630.683 C 115.275 629.818 116.411 629.608 116.282 628.889 C 115.506 628.27 115.111 628.07 114.271 628.714 C 113.328 629.658 111.736 629.396 110.684 628.539 C 110.243 628.179 110.338 626.487 109.641 627.209 C 109.478 627.435 107.77 629.468 107.642 629.316 C 107.134 628.715 107.457 627.493 107.718 626.875 C 108.63 624.715 108.739 621.995 110.272 620.197 C 112.138 619.745 111.709 620.942 112.587 622.26 C 113.037 622.935 113.92 623.317 114.268 624.047 C 114.508 624.551 113.94 626.757 115.072 626.056 C 115.378 626.028 116.25 626.94 116.387 626.737 C 116.596 626.427 116.298 625.876 116.494 625.539 C 116.728 625.134 117.865 625.391 117.76 624.935 C 117.673 624.562 116.103 624.082 116.518 623.496 C 117.411 622.235 119.648 623.317 120.783 623.424 C 121.33 624.172 121.953 623.636 122.691 624.027 C 123.227 624.311 123.534 624.924 124.065 625.212 C 125.415 625.944 125.842 622.496 125.848 621.821 C 125.86 620.375 124.013 619.386 124.273 617.876 C 124.411 617.078 125.498 616.175 126.327 616.36 C 127.535 616.63 127.361 620.177 127.744 621.19 C 128.355 622.806 127.647 624.622 128.388 626.432 C 128.757 627.335 129.97 626.348 130.51 627.54 C 131.234 629.136 130.176 631.742 130.698 633.514 C 130.733 634.851 128.844 635.594 127.804 636.329 C 124.692 638.524 121.547 640.665 118.483 642.925 C 105.169 652.747 91.978 662.907 78.402 672.355 C 78.333 671.451 77.14 669.308 76.166 669.008 C 75.606 668.836 74.517 669.88 73.913 668.793 C 73.642 668.306 74.771 668.099 74.65 667.549 C 74.533 667.016 74.186 666.714 74.265 666.122 C 74.456 664.699 76.294 664.183 76.719 662.864 C 77.004 661.978 76.584 660.134 77.401 659.499 C 77.6 659.344 77.928 659.416 78.116 659.246 C 78.49 658.907 77.609 658.472 78.382 658.009 C 78.923 657.684 79.138 658.36 79.649 658.264 C 80.821 658.043 82.592 658.042 83.262 656.915 Z" opacity="1" fill="rgb(140,123,106)" fill-rule="evenodd"/>
<path d=" M 84.537 615.277 C 85.902 615.579 87.098 615.315 88.429 615.463 C 89.31 615.56 89.759 616.41 90.485 616.749 C 91.104 617.038 91.626 616.008 91.89 616.908 C 90.72 619.13 89.42 621.273 88.178 623.448 C 87.008 624.846 85.612 624.631 83.914 624.806 C 82.525 625.212 81.093 626.942 80.197 624.872 C 80.279 622.227 82.076 619.442 83.744 617.557 C 83.719 617.211 83.314 617.264 83.262 616.875 C 83.18 616.262 84.197 615.653 84.537 615.277 Z" opacity="1" fill="rgb(143,127,108)" fill-rule="evenodd"/>
<path d=" M 83.281 585.533 C 84.223 584.605 84.787 583.521 85.978 582.849 C 86.6 582.621 88.766 582.114 89.358 582.389 C 90.715 583.021 92.665 586.466 92.706 587.916 C 92.41 588.694 91.732 588.642 91.074 588.229 C 89.732 587.386 89.086 585.757 87.797 584.914 C 86.528 584.082 84.53 587.971 83.281 585.533 Z" opacity="1" fill="rgb(148,134,116)" fill-rule="evenodd"/>
<path d=" M 93.27 645.848 C 92.796 646.48 92.334 647.12 91.86 647.751 C 91.208 648.468 90.589 649.267 89.829 649.87 C 88.755 649.679 87.971 647.933 87.294 647.168 C 85.812 645.492 81.839 644.958 83.919 641.992 C 86.424 640.953 89.109 644.223 91.365 645.032 C 91.724 645.119 93.301 645.418 93.27 645.848 Z" opacity="1" fill="rgb(134,118,99)" fill-rule="evenodd"/>
<path d=" M 102.787 609.295 C 103.678 609.399 104.119 610.302 104.577 611.005 C 105.46 612.358 106.556 613.585 107.726 614.698 C 108.477 615.412 110.794 617.444 111.844 617.312 C 112.363 617.247 112.866 616.666 113.415 616.799 C 114.631 617.094 115.672 618.393 116.849 618.886 C 117.025 619.197 117.011 619.217 117.302 619.496 C 117.425 619.615 117.56 619.721 117.696 619.826 C 119.482 621.204 118.48 618.762 119.777 618.795 C 120.334 618.81 120.184 619.383 120.372 619.73 C 120.636 620.219 121.192 620.348 121.34 620.938 C 121.546 621.754 120.78 622.589 120.783 623.424 C 119.648 623.317 117.411 622.235 116.518 623.496 C 116.103 624.082 117.673 624.562 117.76 624.935 C 117.865 625.391 116.728 625.134 116.494 625.539 C 116.298 625.876 116.596 626.427 116.387 626.737 C 116.25 626.94 115.378 626.028 115.072 626.056 C 113.94 626.757 114.508 624.551 114.268 624.047 C 113.92 623.317 113.037 622.935 112.587 622.26 C 111.709 620.942 112.138 619.745 110.272 620.197 C 108.739 621.995 108.63 624.715 107.718 626.875 C 107.457 627.493 107.134 628.715 107.642 629.316 C 107.77 629.468 109.478 627.435 109.641 627.209 C 110.338 626.487 110.243 628.179 110.684 628.539 C 111.736 629.396 113.328 629.658 114.271 628.714 C 115.111 628.07 115.506 628.27 116.282 628.889 C 116.411 629.608 115.275 629.818 115.527 630.683 C 116.06 631.222 113.51 631.474 113.106 631.53 C 110.565 631.886 107.551 632.039 105 631.854 C 104.02 631.447 103.471 629.891 102.952 629.021 C 101.894 627.243 100.009 624.581 98.465 623.229 C 98.295 623.08 97.646 623.318 97.492 623.309 C 96.414 623.247 95.52 621.939 95.349 620.998 C 95.271 620.433 94.86 619.046 95.263 618.542 C 95.409 618.36 95.754 618.958 96.104 618.817 C 96.805 618.535 97.045 617.628 97.842 617.344 C 98.902 616.967 100.299 618.019 100.483 616.376 C 100.962 613.98 102.177 611.684 102.787 609.295 Z" opacity="1" fill="rgb(142,128,108)" fill-rule="evenodd"/>
<path d=" M 95.851 617.481 C 95.851 617.481 95.851 617.481 95.851 617.481 Z" opacity="1" fill="rgb(142,128,108)" fill-rule="evenodd"/>
<path d=" M 106.743 573.872 C 106.706 573.078 106.532 572.377 107.263 571.888 C 107.554 571.899 109.094 571.476 109.143 571.51 C 109.621 571.843 109.024 572.208 109.76 572.375 C 110.481 572.539 110.793 572.153 111.258 572.872 C 110.988 573.576 110.079 574.969 110.373 575.735 C 110.625 576.392 111.422 576.826 111.623 577.486 C 111.737 577.863 111.211 578.5 111.375 578.735 C 111.681 579.175 112.957 578.869 113.479 579.233 C 115.069 580.342 116.279 581.788 117.44 583.311 C 117.776 583.752 118.619 584.118 118.211 584.803 C 117.775 585.535 116.546 585.715 115.82 586.003 C 115.118 586.282 114.639 586.519 113.865 586.509 C 110.178 586.08 105.095 585.717 101.769 584.085 C 100.705 583.563 98.003 582.145 98.86 580.506 C 99.081 580.082 99.833 579.844 100.205 579.584 C 100.269 579.263 99.896 578.81 100.255 578.552 C 102.015 577.285 104.943 580.069 106.623 578.786 C 107.422 578.176 107.261 576.638 107.245 575.778 C 107.231 575.028 107.025 574.55 106.743 573.872 Z" opacity="1" fill="rgb(142,123,106)" fill-rule="evenodd"/>
<path d=" M 116.849 618.886 C 115.672 618.393 114.631 617.094 113.415 616.799 C 112.866 616.666 112.363 617.247 111.844 617.312 C 110.794 617.444 108.477 615.412 107.726 614.698 C 106.556 613.585 105.46 612.358 104.577 611.005 C 104.119 610.302 103.678 609.399 102.787 609.295 C 102.9 608.538 102.026 607.032 102.909 606.474 C 103.178 606.304 103.278 606.605 103.469 606.676 C 103.831 606.81 104.012 606.327 104.282 606.524 C 104.787 606.891 104.916 607.773 105.353 608.232 C 106.214 609.136 107.522 609.623 108.261 610.64 C 108.626 611.142 108.212 611.716 108.561 612.158 C 109.025 612.747 110.22 612.659 110.878 612.941 C 112.921 613.815 114.269 615.175 116.08 616.301 C 116.628 616.642 117.964 616.947 117.913 617.814 C 117.885 618.294 117.108 618.513 116.849 618.886 Z" opacity="0.996" fill="rgb(138,127,104)" fill-rule="evenodd"/>
<path d=" M 123.146 545.328 C 122.569 545.779 121.602 547 121.899 547.796 C 122.168 548.518 123.168 549.072 122.299 549.817 C 121.738 550.298 121.385 548.919 120.864 548.946 C 119.362 549.022 118.902 550.285 118.139 551.264 C 117.83 551.659 117.119 551.614 116.884 551.989 C 116.618 552.413 117.5 552.35 117.631 552.495 C 117.938 552.834 116.899 553.291 117.422 553.809 C 117.767 554.151 118.384 553.861 118.789 553.912 C 119.351 553.983 119.642 554.47 120.252 554.38 C 120.852 554.291 121.18 553.588 121.743 553.363 C 122.918 552.894 124.976 553.01 125.258 551.468 C 127.195 550.547 124.999 547.916 126.45 547.066 C 127.09 546.69 127.988 548.428 128.205 548.305 C 128.793 547.971 128.475 546.846 129.115 546.532 C 129.439 546.374 129.693 547.037 129.9 546.823 C 130.449 546.258 130.461 545.204 130.739 544.501 C 130.532 558.156 130.657 571.847 130.71 585.503 C 130.292 584.103 130.536 582.426 130.52 580.979 C 130.49 578.312 130.477 575.647 130.462 572.98 C 130.453 571.541 130.942 569.229 129.894 568.052 C 129.202 567.274 128.042 570.593 127.689 570.822 C 126.934 571.311 125.369 569.498 124.323 570.58 C 123.355 571.582 124.962 571.916 124.828 572.966 C 124.759 573.515 124.328 573.385 123.958 573.591 C 123.072 574.086 123.072 575.384 122.18 575.845 C 121.195 576.355 119.996 575.39 119.132 575.05 C 118.776 574.911 118.201 575.07 117.915 574.786 C 117.258 574.133 118.943 573.392 117.136 573.027 C 116.844 572.968 116.793 573.118 116.56 573.256 C 116.241 573.445 115.741 573.38 115.51 573.686 C 115.077 574.261 117.059 575.283 115.66 575.777 C 115.065 575.988 114.572 574.744 114.152 574.516 C 113.587 574.21 112.951 574.563 112.389 574.251 C 111.829 573.94 111.818 573.216 111.258 572.872 C 110.793 572.153 110.481 572.539 109.76 572.375 C 109.024 572.208 109.621 571.843 109.143 571.51 C 109.094 571.476 107.554 571.899 107.263 571.888 C 106.806 569.938 108.407 568.692 109.169 566.799 C 109.416 566.185 108.712 566 108.881 565.521 C 109.004 565.173 109.504 565.109 109.631 564.764 C 109.769 564.39 109.252 564.262 109.257 563.912 C 109.265 563.255 110.095 563.535 110.23 562.907 C 110.404 562.104 109.905 561.09 109.897 560.262 C 109.89 559.53 110.544 558.684 110.675 557.925 C 110.817 557.099 110.566 556.554 110.406 555.78 C 110.344 555.484 110.797 555.26 110.615 555.012 C 110.119 554.339 109.227 554.417 109.28 553.356 C 109.322 552.51 109.958 551.704 110.193 550.891 C 110.931 548.339 111.837 544.896 113.672 542.889 C 114.615 541.858 115.979 542.037 116.663 540.692 C 118.257 538.538 120.251 539.203 122.448 538.837 C 122.961 538.752 124.327 538.023 124.697 538.459 C 125.194 539.045 124.732 540.11 124.51 540.704 C 123.93 542.258 123.769 543.773 123.146 545.328 Z" opacity="1" fill="rgb(142,127,107)" fill-rule="evenodd"/>
<path d=" M 123.146 545.328 C 125.696 545.866 124.802 549.606 125.258 551.468 C 124.976 553.01 122.918 552.894 121.743 553.363 C 121.18 553.588 120.852 554.291 120.252 554.38 C 119.642 554.47 119.351 553.983 118.789 553.912 C 118.384 553.861 117.767 554.151 117.422 553.809 C 116.899 553.291 117.938 552.834 117.631 552.495 C 117.5 552.35 116.618 552.413 116.884 551.989 C 117.119 551.614 117.83 551.659 118.139 551.264 C 118.902 550.285 119.362 549.022 120.864 548.946 C 121.385 548.919 121.738 550.298 122.299 549.817 C 123.168 549.072 122.168 548.518 121.899 547.796 C 121.602 547 122.569 545.779 123.146 545.328 Z" opacity="1" fill="rgb(144,125,105)" fill-rule="evenodd"/>
<path d=" M 234.217 462.965 C 234.175 462.092 231.931 463.677 231.493 463.994 C 229.045 465.76 226.584 467.513 224.143 469.291 C 217.536 474.105 210.898 478.87 204.379 483.805 C 191.625 493.459 178.212 502.241 165.501 511.95 C 158.992 516.922 152.807 522.787 145.807 527.049 C 144.846 484.815 146.614 442.51 145.579 400.277 C 152.656 404.523 159.397 409.839 166.152 414.617 C 181.712 425.625 197.283 436.706 213.102 447.341 C 218.477 450.955 223.794 454.663 229.111 458.361 C 230.349 459.222 234.307 461.397 234.217 462.965 Z" opacity="1" fill="rgb(229,214,193)" fill-rule="evenodd"/>
<path d=" M 145.807 527.049 C 152.807 522.787 158.992 516.922 165.501 511.95 C 178.212 502.241 191.625 493.459 204.379 483.805 C 210.898 478.87 217.536 474.105 224.143 469.291 C 226.584 467.513 229.045 465.76 231.493 463.994 C 231.931 463.677 234.175 462.092 234.217 462.965 C 233.8 495.402 234.619 527.86 234.227 560.304 C 233.094 561.78 230.964 562.799 229.468 563.885 C 225.275 566.93 221.108 570.02 216.922 573.073 C 201.776 584.121 186.526 595.016 171.277 605.924 C 165.684 609.925 160.079 613.916 154.498 617.935 C 152.039 619.707 148.999 622.757 146.142 623.741 C 145.394 620.052 145.904 615.747 145.886 611.992 C 145.849 604.494 145.82 596.996 145.794 589.497 C 145.747 575.665 145.746 561.831 145.756 547.998 C 145.761 541.042 145.452 533.994 145.807 527.049 Z M 178.754 515.501 C 178.547 517.705 178.576 520.989 179.371 523.066 C 180.293 524.087 183.715 522.203 184.209 521.219 C 184.367 520.257 184.473 520.363 184.998 519.719 C 185.542 519.051 184.039 517.976 183.816 517.772 C 183.479 517.463 183.75 516.892 183.566 516.516 C 183.134 515.63 181.694 515.908 181.034 515.277 C 180.715 514.972 180.48 514.304 179.928 514.32 C 179.263 514.339 178.977 515.003 178.754 515.501 Z" opacity="1" fill="rgb(198,180,155)" fill-rule="evenodd"/>
<path d=" M 178.754 515.501 C 178.977 515.003 179.263 514.339 179.928 514.32 C 180.48 514.304 180.715 514.972 181.034 515.277 C 181.694 515.908 183.134 515.63 183.566 516.516 C 183.75 516.892 183.479 517.463 183.816 517.772 C 184.039 517.976 185.542 519.051 184.998 519.719 C 184.473 520.363 184.367 520.257 184.209 521.219 C 183.715 522.203 180.293 524.087 179.371 523.066 C 178.576 520.989 178.547 517.705 178.754 515.501 Z" opacity="1" fill="rgb(192,174,149)" fill-rule="evenodd"/>
<path d=" M 290.219 454.249 C 296.63 454.472 303.085 454.213 309.502 454.248 C 311.169 454.257 312.837 454.285 314.504 454.275 C 315.117 454.272 315.892 454.101 316.389 454.461 C 319.04 462.521 321.277 470.788 323.6 478.949 C 327.785 493.652 332.436 508.265 337.029 522.846 C 340.278 533.163 343.303 543.54 346.477 553.881 C 348.485 560.422 351.146 567.169 352.431 573.884 C 344.465 574.012 336.448 574.359 328.481 573.987 C 326.886 570.814 326.26 567.151 325.184 563.785 C 322.891 556.612 320.675 549.411 318.466 542.21 C 312.793 523.713 306.747 505.305 300.736 486.917 C 298.362 479.655 296.178 472.315 293.897 465.023 C 292.775 461.436 291.837 457.649 290.219 454.249 Z" opacity="1" fill="rgb(203,182,152)" fill-rule="evenodd"/>
<path d=" M 347.435 528.092 C 348.233 524.41 349.759 520.826 350.89 517.229 C 352.989 510.552 354.975 503.843 357.097 497.173 C 358.454 492.908 359.745 488.602 360.966 484.297 C 361.65 481.884 362.183 479.34 363.277 477.069 C 363.805 476.511 364.233 476.294 364.999 476.241 C 366.056 478.623 366.666 481.27 367.525 483.744 C 369.266 488.755 371.154 493.709 372.967 498.694 C 373.795 500.971 374.714 503.211 375.499 505.504 C 375.847 506.519 376.462 507.494 376.487 508.594 C 376.52 509.988 375.672 511.266 375.218 512.539 C 374.46 514.666 373.835 516.837 373.059 518.96 C 370.428 526.155 367.868 533.385 365.423 540.646 C 363.567 546.158 361.64 551.656 359.618 557.11 C 359.193 558.254 358.859 559.41 358.378 560.536 C 358.304 560.711 357.96 561.898 357.719 561.819 C 355.295 554.318 352.974 546.778 350.516 539.289 C 349.436 536 347.214 531.572 347.435 528.092 Z" opacity="1" fill="rgb(203,182,151)" fill-rule="evenodd"/>
<path d=" M 365.617 454.345 C 371.737 454.153 377.879 454.184 384.004 454.218 C 385.87 454.229 389.326 453.539 390.954 454.408 C 392.749 461.224 395.357 467.98 397.482 474.726 C 401.877 488.684 406.134 502.693 410.459 516.675 C 412.335 522.739 414.284 528.779 416.099 534.863 C 416.77 537.112 417.08 540.879 418.531 542.707 C 420.227 533.763 423.583 525.072 426.093 516.332 C 432.058 495.561 439.026 475.079 444.827 454.258 C 450.017 453.882 455.304 454.135 460.505 454.146 C 463.629 454.153 467.127 453.716 470.197 454.287 C 470.333 455.322 469.6 456.654 469.255 457.621 C 468.518 459.682 467.942 461.816 467.291 463.906 C 464.746 472.071 462.138 480.226 459.432 488.338 C 453.176 507.096 447.114 525.956 441.106 544.796 C 439.289 550.493 437.356 556.162 435.615 561.883 C 434.394 565.894 433.35 570.122 431.648 573.958 C 428.383 574.673 424.348 574.063 420.999 574.061 C 417.66 574.059 414.321 574.016 410.982 574.041 C 409.139 574.055 407.149 574.346 405.324 574.082 C 403.726 567.289 401.187 560.664 399.224 553.967 C 394.009 536.171 387.986 518.647 382.171 501.041 C 379.019 491.497 375.549 482.071 372.389 472.531 C 370.402 466.528 368.497 459.98 365.617 454.345 Z" opacity="1" fill="rgb(202,181,150)" fill-rule="evenodd"/>
<path d=" M 488.583 454.354 C 494.547 454.179 500.534 454.194 506.504 454.216 C 509.585 454.228 512.957 453.893 515.999 454.361 C 519.339 458.998 521.955 464.541 524.774 469.522 C 531.873 482.065 538.817 494.696 545.691 507.364 C 549.014 513.488 552.182 519.724 555.252 525.978 C 556.439 528.397 558.522 531.046 559.099 533.684 C 559.925 537.463 559.202 542.134 559.211 545.999 C 559.231 555.354 558.94 564.762 559.211 574.109 C 550.987 573.644 542.627 574.196 534.389 574.151 C 534.278 564.27 534.367 554.377 534.381 544.494 C 534.385 541.583 534.413 538.672 534.424 535.762 C 534.429 534.495 534.676 532.954 534.197 531.75 C 533.412 529.773 531.96 527.888 530.908 526.037 C 528.606 521.987 526.205 517.992 523.853 513.971 C 516.283 501.032 508.817 488.024 501.038 475.207 C 498.228 470.576 495.529 465.881 492.757 461.227 C 491.421 458.984 489.586 456.744 488.583 454.354 Z" opacity="1" fill="rgb(201,180,150)" fill-rule="evenodd"/>
<path d=" M 551.784 499.463 C 558.42 489.211 564.551 478.648 570.76 468.136 C 572.515 465.164 574.297 462.197 576.002 459.197 C 576.856 457.694 577.677 455.49 578.977 454.344 C 588.223 454.364 597.689 453.631 606.909 454.352 C 603.211 460.828 598.987 467.062 595.105 473.438 C 588.786 483.816 582.572 494.276 576.012 504.503 C 573.182 508.916 570.362 513.369 567.692 517.88 C 566.65 519.641 565.372 522.913 563.622 524.011 C 561.113 520.538 559.329 515.983 557.397 512.145 C 555.481 508.341 552.924 504.552 551.558 500.515 C 551.583 499.766 551.501 500.116 551.784 499.463 Z" opacity="1" fill="rgb(202,180,150)" fill-rule="evenodd"/>
<path d=" M 612.372 573.024 C 624.454 544.886 636.271 516.599 648.776 488.644 C 652.178 481.037 655.388 473.332 658.654 465.665 C 660.212 462.007 661.458 457.863 663.538 454.476 C 667.098 453.963 670.909 454.318 674.501 454.315 C 679.637 454.31 684.849 454.087 689.974 454.432 C 701.571 479.426 711.633 505.1 722.584 530.376 C 726.392 539.167 729.939 548.074 733.833 556.823 C 735.315 560.153 736.689 563.53 738.099 566.889 C 739.042 569.134 740.354 571.473 740.972 573.82 C 734.815 573.905 728.655 573.89 722.496 573.901 C 720.103 573.906 716.503 574.555 714.257 573.793 C 710.643 566.559 708.407 558.526 705.36 551.041 C 704.269 550.565 702.433 550.87 701.237 550.875 C 698.094 550.887 694.951 550.876 691.808 550.887 C 680.464 550.927 669.059 551.386 657.715 551.133 C 659.888 546.613 661.885 541.987 663.946 537.405 C 664.751 535.615 665.516 532.839 666.983 531.515 C 674.407 530.981 682.06 531.511 689.505 531.582 C 691.326 531.599 693.149 531.593 694.969 531.639 C 695.373 531.649 696.64 531.905 696.928 531.533 C 695.791 527.755 693.893 524.001 692.382 520.348 C 689.712 513.888 687.09 507.406 684.419 500.946 C 681.741 494.471 679.881 487.192 676.293 481.174 C 666.369 503.084 657.451 525.611 648.508 547.946 C 645.955 554.323 643.242 560.639 640.57 566.969 C 639.879 568.607 639.173 570.237 638.477 571.872 C 638.181 572.569 637.915 573.619 637.297 574.081 C 631.501 574.766 625.333 574.194 619.499 574.207 C 617.383 574.212 614.045 574.892 612.133 573.972 C 612.324 573.319 612.247 573.635 612.372 573.024 Z" opacity="1" fill="rgb(202,181,152)" fill-rule="evenodd"/>
<path d=" M 744.368 454.923 C 745.387 453.754 749.46 454.306 750.984 454.295 C 757.155 454.248 763.329 454.308 769.501 454.325 C 786.835 454.372 804.167 454.331 821.501 454.305 C 827.335 454.297 833.169 454.261 839.003 454.291 C 841.789 454.306 844.817 453.995 847.569 454.396 C 847.993 456.439 847.633 458.905 847.64 460.997 C 847.657 466.046 847.412 471.174 847.668 476.213 C 839.989 475.858 832.191 476.243 824.5 476.22 C 818.831 476.204 812.827 475.635 807.198 476.295 C 807.516 481.489 807.226 486.793 807.228 491.999 C 807.23 502.499 807.222 512.999 807.22 523.499 C 807.217 534.499 807.21 545.498 807.208 556.498 C 807.206 562.264 807.481 568.103 807.153 573.857 C 804.469 574.353 801.387 574.018 798.664 574.013 C 793.429 574.002 788.188 574.061 782.958 573.886 C 782.569 573.701 782.666 572.768 782.652 572.357 C 782.608 571.073 782.672 569.785 782.663 568.5 C 782.619 562.5 782.707 556.499 782.739 550.498 C 782.872 525.775 783.183 501 783.025 476.293 C 779.913 475.944 776.634 476.219 773.501 476.206 C 767.335 476.178 761.167 476.2 755.001 476.204 C 752.501 476.206 750.001 476.174 747.502 476.141 C 746.529 476.128 745.338 476.355 744.404 476.093 C 744.061 469.098 744.083 461.918 744.368 454.923 Z" opacity="1" fill="rgb(206,186,157)" fill-rule="evenodd"/>
<path d=" M 871.633 454.711 C 875.68 453.785 880.365 454.334 884.501 454.332 C 892.667 454.328 900.834 454.331 909 454.347 C 923.834 454.376 938.667 454.362 953.5 454.333 C 961.316 454.318 969.255 453.911 977.058 454.346 C 977.641 456.209 977.26 458.809 977.262 460.757 C 977.268 465.833 976.915 471.032 977.19 476.094 C 966.931 476.967 956.298 476.177 946.003 476.152 C 943.37 476.145 940.738 476.15 938.105 476.108 C 937.359 476.096 935.852 475.916 935.333 476.469 C 935.768 483.759 935.373 491.191 935.363 498.494 C 935.345 512.161 935.352 525.827 935.355 539.494 C 935.357 547.16 935.366 554.827 935.377 562.494 C 935.382 566.092 936.038 570.334 935.354 573.845 C 927.336 574.305 919.27 574.043 911.244 574.054 C 910.813 556.213 911.108 538.347 911.143 520.5 C 911.172 505.722 910.872 490.893 911.253 476.123 C 901.855 476.414 892.406 476.159 883.002 476.175 C 879.321 476.181 875.399 475.733 871.747 476.15 C 870.966 474.774 871.572 471.617 871.57 469.992 C 871.564 464.912 871.829 459.783 871.633 454.711 Z" opacity="1" fill="rgb(206,185,157)" fill-rule="evenodd"/>

</svg>